<?xml version="1.0" encoding="UTF-8" standalone="no"?>
<!-- Created with Inkscape (http://www.inkscape.org/) -->

<svg
   width="176.51392mm"
   height="169.8553mm"
   viewBox="0 0 176.51392 169.8553"
   version="1.1"
   id="svg1"
   xmlns="http://www.w3.org/2000/svg"
   xmlns:svg="http://www.w3.org/2000/svg">
  <defs
     id="defs1" />
  <g
     id="layer1"
     style="display:inline"
     transform="translate(-9.8375981,-73.635832)">
    <path
       style="display:inline;fill:#ffffff;stroke:#ffffff;stroke-width:6;stroke-opacity:1"
       d="m 79.566978,125.59467 -8.678262,6.94645 c 0,0 -3.694525,2.77089 -7.158143,4.73361 -3.463618,1.96272 -50.222462,22.39807 -50.222462,22.39807 l 5.207109,16.54695 8.189181,-0.57118 -7.163039,2.72831 c 0,0 0.428021,2.21447 2.046271,4.9288 0.913285,1.89903 3.648273,6.73359 4.748082,8.70465 1.173955,2.10394 18.182799,-6.56431 20.71663,-6.80391 2.775944,-0.26249 -18.942011,9.28363 -17.465229,11.18072 5.601351,7.19559 17.937319,21.87671 24.109121,28.19106 1.665933,1.89927 26.146852,-14.19734 24.284515,-12.23001 -2.781881,2.9387 -18.527594,16.69489 -17.94624,18.86127 4.577151,4.48499 10.134114,9.33321 10.307843,9.28109 0,0 3.151878,0.401 6.811782,-2.07817 7.165163,-4.85358 10.222195,-4.6238 29.440753,-20.78171 19.74558,-16.601 30.03724,-32.46177 30.03724,-32.46177 z"
       id="path3" />
    <path
       id="path1"
       style="font-variation-settings:normal;opacity:1;fill:#ffffff;fill-opacity:1;stroke:#ffffff;stroke-width:6;stroke-linecap:butt;stroke-linejoin:miter;stroke-miterlimit:4;stroke-dashoffset:0;stroke-opacity:1;stop-color:#000000;stop-opacity:1"
       d="m 177.99581,76.84403 c -4.42344,-1.233317 -10.43887,4.453044 -10.43887,4.453044 -15.47151,14.495915 -22.60419,22.816886 -40.57753,40.529226 L 104.0905,99.133557 86.875337,113.98643 l 60.933623,63.69032 17.80588,-16.82133 -27.02839,-27.11873 c 18.70064,-18.66657 24.02242,-25.12957 39.86066,-41.630964 0,0 8.12222,-7.564467 3.46972,-12.585211 -1.61143,-1.738963 -2.46236,-2.26979 -3.92102,-2.676485 z" />
    <path
       style="display:inline;fill:#ffcc00;stroke:#ffcc00;stroke-width:2;stroke-opacity:1"
       d="m 81.625935,180.91632 -65.577837,-12.81538 2.667122,8.11881 8.189181,-0.57118 -7.163039,2.72831 c 0,0 0.428021,2.21447 2.046271,4.9288 0.913285,1.89903 3.648273,6.73359 4.748082,8.70465 1.173955,2.10394 18.182799,-6.56431 20.71663,-6.80391 2.775944,-0.26249 -18.942011,9.28363 -17.465229,11.18072 5.601351,7.19559 17.937319,21.87671 24.109121,28.19106 1.665933,1.89927 26.146852,-14.19734 24.284515,-12.23001 -2.781881,2.9387 -18.527594,16.69489 -17.94624,18.86127 4.577151,4.48499 10.134114,9.33321 10.307843,9.28109 0,0 3.151878,0.401 6.811782,-2.07817 7.165163,-4.85358 10.222195,-4.6238 29.440753,-20.78171 19.74558,-16.601 17.43355,-17.66445 17.43355,-17.66445 z"
       id="path4" />
  </g>
</svg>
